# File created by Blade
# Date/Time:  Thu Jan 22 19:01:15 2015
# Frame Rate: 120.000 fps
#------------------------------------------------------
:FULLY-SPECIFIED
:DEGREES
3056
root -2.858324 33.224408 -0.882554 9.272599 -0.970558 2.463722
RightUpLeg -4.192867 -8.533408 -1.436172
RightLeg 1.211276 -0.000000 -0.000000
RightFoot -11.051801 -1.396016 3.171412
RightToeBase 5.335657 -0.000000 -0.000000
LeftUpLeg -5.516634 2.452332 1.167760
LeftLeg 4.725348 -0.000000 -0.000000
LeftFoot -11.432996 2.035456 -10.015840
LeftToeBase 7.486521 -0.000000 -0.000000
Spine -6.401900 9.337478 -4.749391
RightShoulder -20.351896 -44.909618 -6.746693
RightArm 93.559032 -70.101799 -12.980684
RightForeArm -39.414925 -0.000000 99.958636
RightHand 20.586981 -0.000000 10.117461
RightHandThumb1 -24.326973 -0.000000 -32.862282
LeftShoulder -25.315849 30.344589 20.995290
LeftArm -23.072057 70.784253 -86.570353
LeftForeArm 16.998529 -0.000000 113.723221
LeftHand 8.163664 0.000000 -19.312336
LeftHandThumb1 -26.253704 0.000000 33.147579
Head 30.229567 1.067431 7.103130
3057
root -2.857554 33.224418 -0.883884 9.285798 -0.973449 2.461125
RightUpLeg -4.215068 -8.539890 -1.431442
RightLeg 1.223026 -0.000000 -0.000000
RightFoot -11.055861 -1.391564 3.167378
RightToeBase 5.374840 -0.000000 -0.000000
LeftUpLeg -5.532120 2.472886 1.167261
LeftLeg 4.725837 -0.000000 -0.000000
LeftFoot -11.430748 2.015633 -10.010494
LeftToeBase 7.477536 -0.000000 -0.000000
Spine -6.404937 9.328189 -4.759310
RightShoulder -20.370908 -44.926748 -6.747198
RightArm 93.532844 -70.108170 -12.961346
RightForeArm -39.415759 -0.000000 99.967985
RightHand 20.600579 0.000000 10.114126
RightHandThumb1 -24.326973 -0.000000 -32.862282
LeftShoulder -25.342904 30.338580 20.957331
LeftArm -23.047365 70.729950 -86.595231
LeftForeArm 17.137346 -0.000000 113.712777
LeftHand 8.076763 -0.000000 -19.237283
LeftHandThumb1 -26.253704 0.000000 33.147579
Head 30.232265 1.196084 7.136023
3058
root -2.857031 33.224711 -0.884181 9.296310 -0.989932 2.456719
RightUpLeg -4.232139 -8.518992 -1.429987
RightLeg 1.228287 -0.000000 -0.000000
RightFoot -11.048811 -1.391089 3.182206
RightToeBase 5.372587 -0.000000 -0.000000
LeftUpLeg -5.536811 2.493155 1.167260
LeftLeg 4.716797 -0.000000 -0.000000
LeftFoot -11.423205 2.017108 -9.988976
LeftToeBase 7.480315 -0.000000 -0.000000
Spine -6.410682 9.323156 -4.770092
RightShoulder -20.387169 -44.958545 -6.756513
RightArm 93.481792 -70.098934 -12.911430
RightForeArm -39.344492 -0.000000 99.965369
RightHand 20.644248 -0.000000 10.136526
RightHandThumb1 -24.326973 -0.000000 -32.862282
LeftShoulder -25.394994 30.339705 20.901636
LeftArm -22.982172 70.663242 -86.543289
LeftForeArm 17.310983 -0.000000 113.694979
LeftHand 8.232455 0.000000 -19.159923
LeftHandThumb1 -26.253704 0.000000 33.147579
Head 30.248755 1.326947 7.190045
3059
root -2.856745 33.224878 -0.885007 9.310619 -1.009708 2.453301
RightUpLeg -4.256521 -8.500186 -1.427395
RightLeg 1.238901 -0.000000 -0.000000
RightFoot -11.043961 -1.388161 3.190732
RightToeBase 5.324981 -0.000000 -0.000000
LeftUpLeg -5.547084 2.517152 1.166241
LeftLeg 4.713788 -0.000000 -0.000000
LeftFoot -11.426049 2.011985 -9.999390
LeftToeBase 7.455083 -0.000000 -0.000000
Spine -6.419825 9.326601 -4.784082
RightShoulder -20.377772 -44.974529 -6.789317
RightArm 93.387442 -70.136961 -12.799950
RightForeArm -39.443741 -0.000000 99.976302
RightHand 20.664500 0.000000 10.131203
RightHandThumb1 -24.326973 -0.000000 -32.862282
LeftShoulder -25.454076 30.323001 20.846013
LeftArm -22.942867 70.598503 -86.487638
LeftForeArm 17.597835 -0.000000 113.698527
LeftHand 8.417245 0.000000 -19.032856
LeftHandThumb1 -26.253704 0.000000 33.147579
Head 30.254278 1.473354 7.249451
3060
root -2.856871 33.225012 -0.884928 9.326529 -1.025180 2.450609
RightUpLeg -4.275565 -8.491684 -1.424084
RightLeg 1.239716 -0.000000 -0.000000
RightFoot -11.043443 -1.381752 3.190446
RightToeBase 5.330966 -0.000000 -0.000000
LeftUpLeg -5.555781 2.529621 1.167278
LeftLeg 4.704845 -0.000000 -0.000000
LeftFoot -11.422939 2.010596 -9.996539
LeftToeBase 7.449046 -0.000000 -0.000000
Spine -6.431940 9.340847 -4.808847
RightShoulder -20.385183 -44.984580 -6.797691
RightArm 93.239498 -70.196657 -12.643085
RightForeArm -39.572327 -0.000000 99.991589
RightHand 20.696688 -0.000000 10.133847
RightHandThumb1 -24.326973 -0.000000 -32.862282
LeftShoulder -25.511241 30.279731 20.807784
LeftArm -22.935625 70.574866 -86.426683
LeftForeArm 17.910263 -0.000000 113.720630
LeftHand 8.765389 0.000000 -18.939204
LeftHandThumb1 -26.253704 0.000000 33.147579
Head 30.258094 1.615750 7.327087
3061
root -2.856275 33.225430 -0.884378 9.339672 -1.048581 2.445816
RightUpLeg -4.293155 -8.484765 -1.420636
RightLeg 1.243452 -0.000000 -0.000000
RightFoot -11.037423 -1.366467 3.190835
RightToeBase 5.356182 -0.000000 -0.000000
LeftUpLeg -5.553724 2.526822 1.168912
LeftLeg 4.682812 -0.000000 -0.000000
LeftFoot -11.423431 2.034568 -10.014087
LeftToeBase 7.488057 -0.000000 -0.000000
Spine -6.448086 9.376835 -4.830535
RightShoulder -20.398113 -45.012204 -6.805493
RightArm 93.108198 -70.238661 -12.488471
RightForeArm -39.697487 -0.000000 99.997623
RightHand 20.712752 -0.000000 10.123356
RightHandThumb1 -24.326973 -0.000000 -32.862282
LeftShoulder -25.555056 30.252974 20.779423
LeftArm -22.892915 70.609498 -86.357437
LeftForeArm 18.310245 -0.000000 113.718977
LeftHand 8.889708 -0.000000 -18.522226
LeftHandThumb1 -26.253704 0.000000 33.147579
Head 30.265424 1.702480 7.386089
3062
root -2.856394 33.225537 -0.883991 9.354378 -1.068586 2.442853
RightUpLeg -4.309582 -8.482388 -1.418059
RightLeg 1.241349 -0.000000 -0.000000
RightFoot -11.028303 -1.346062 3.179105
RightToeBase 5.318583 -0.000000 -0.000000
LeftUpLeg -5.560342 2.537614 1.168924
LeftLeg 4.675141 -0.000000 -0.000000
LeftFoot -11.422987 2.042343 -10.010055
LeftToeBase 7.474724 -0.000000 -0.000000
Spine -6.468697 9.406652 -4.853975
RightShoulder -20.386106 -45.001446 -6.843984
RightArm 93.031442 -70.315721 -12.371683
RightForeArm -39.808061 -0.000000 99.994884
RightHand 20.725085 0.000000 10.108866
RightHandThumb1 -24.326973 -0.000000 -32.862282
LeftShoulder -25.599735 30.248506 20.748278
LeftArm -22.763438 70.656420 -86.192138
LeftForeArm 18.523228 -0.000000 113.713775
LeftHand 9.039642 -0.000000 -18.260274
LeftHandThumb1 -26.253704 0.000000 33.147579
Head 30.284009 1.842440 7.480593
